<?xml version="1.0" encoding="utf-8"?>
<!-- Generator: Adobe Illustrator 16.0.0, SVG Export Plug-In . SVG Version: 6.00 Build 0)  -->
<!DOCTYPE svg PUBLIC "-//W3C//DTD SVG 1.1//EN" "http://www.w3.org/Graphics/SVG/1.1/DTD/svg11.dtd">
<svg version="1.1" xmlns="http://www.w3.org/2000/svg" xmlns:xlink="http://www.w3.org/1999/xlink" x="0px" y="0px"
	 width="485.243px" height="58.744px" viewBox="0 0 485.243 58.744" enable-background="new 0 0 485.243 58.744"
	 xml:space="preserve">
<g id="圖層_1">
	<g>
		<g>
			<g>
				<path fill="#3D3A39" d="M143.902,36.017c0.151,1.848-0.529,3.45-2.041,4.806c-1.512,1.356-3.251,1.975-5.217,1.854
					c-1.814-0.12-3.333-0.816-4.555-2.089c-1.223-1.271-1.833-2.783-1.833-4.535h2.986v0.689c0,0.703,0.403,1.43,1.209,2.18
					c0.807,0.751,1.664,1.114,2.571,1.091c1.209-0.024,2.167-0.373,2.873-1.048c0.63-0.625,0.958-1.444,0.983-2.456
					c0.025-1.757-1.022-2.961-3.142-3.611l-2.529-0.766c-2.646-0.792-4.031-2.509-4.157-5.149c-0.076-1.584,0.487-2.941,1.688-4.069
					c1.2-1.129,2.648-1.729,4.342-1.801c1.466-0.072,2.836,0.378,4.114,1.35c1.276,0.973,1.965,2.179,2.066,3.618v0.612h-3.024
					v-0.474c0-0.729-0.321-1.318-0.964-1.768c-0.643-0.45-1.38-0.675-2.211-0.675c-0.807,0.024-1.506,0.302-2.098,0.832
					c-0.593,0.531-0.901,1.194-0.926,1.991c-0.101,1.472,0.818,2.521,2.759,3.148l2.495,0.796
					C142.164,31.48,143.7,33.305,143.902,36.017z"/>
				<path fill="#3D3A39" d="M172.63,31.876c0,2.952-1.128,5.503-3.383,7.65c-2.256,2.148-4.933,3.174-8.033,3.078
					c-2.999-0.072-5.538-1.152-7.617-3.24s-3.119-4.572-3.119-7.452c0-3,1.121-5.573,3.364-7.722
					c2.243-2.147,4.914-3.174,8.014-3.078c2.999,0.097,5.543,1.194,7.636,3.294C171.584,26.507,172.63,28.996,172.63,31.876z
					 M169.758,31.659c-0.076-2.169-0.891-4.025-2.444-5.568c-1.553-1.543-3.428-2.314-5.625-2.314
					c-2.299-0.023-4.257,0.742-5.873,2.297c-1.617,1.555-2.438,3.429-2.462,5.622c-0.051,2.17,0.694,4.068,2.235,5.695
					c1.541,1.628,3.422,2.478,5.646,2.55c2.374,0.12,4.4-0.663,6.08-2.351C168.994,35.902,169.808,33.926,169.758,31.659z"/>
				<path fill="#3D3A39" d="M201.887,31.984c0.076,2.952-1.034,5.502-3.327,7.65c-2.293,2.147-4.989,3.174-8.089,3.077
					c-3-0.071-5.538-1.151-7.617-3.239c-2.079-2.088-3.119-4.572-3.119-7.452c0-3,1.119-5.574,3.358-7.723
					c2.238-2.147,4.904-3.173,7.998-3.077c3.169,0.12,5.81,1.332,7.922,3.636V14.524h2.873V31.984z M199.014,31.768
					c-0.051-2.169-0.852-4.025-2.405-5.568c-1.554-1.543-3.442-2.314-5.664-2.314c-2.274-0.024-4.226,0.741-5.854,2.296
					s-2.457,3.43-2.481,5.623c-0.025,2.17,0.732,4.068,2.273,5.695c1.541,1.627,3.422,2.478,5.646,2.549
					c2.374,0.121,4.4-0.663,6.08-2.351C198.288,36.01,199.09,34.033,199.014,31.768z"/>
				<path fill="#3D3A39" d="M230.842,31.84v0.145v10.152h-2.873v-3.204c-2.334,2.544-5.196,3.768-8.584,3.672
					c-2.962-0.096-5.485-1.188-7.568-3.276s-3.125-4.572-3.125-7.452c0-2.999,1.121-5.573,3.364-7.722
					c2.243-2.147,4.926-3.162,8.051-3.042c3.024,0.097,5.594,1.194,7.711,3.294C229.935,26.507,230.942,28.984,230.842,31.84z
					 M227.969,31.642c-0.051-2.164-0.858-4.017-2.425-5.557c-1.566-1.539-3.448-2.309-5.645-2.309c-2.299,0-4.257,0.77-5.874,2.309
					c-1.616,1.54-2.438,3.404-2.462,5.593c-0.051,2.165,0.701,4.06,2.255,5.683c1.553,1.624,3.428,2.483,5.626,2.58
					c2.375,0.096,4.401-0.691,6.081-2.363S228.019,33.927,227.969,31.642z"/>
			</g>
		</g>
		<g>
			<g>
				<path fill="#3D3A39" d="M268.236,24.237h-5.443v18h-2.873V21.321c0-2.184,0.706-3.87,2.117-5.059
					c1.411-1.188,3.225-1.782,5.443-1.782h0.756v2.448h-0.762c-1.522,0.072-2.601,0.411-3.235,1.016
					c-0.964,0.968-1.446,1.935-1.446,2.901v0.871h5.443V24.237z"/>
				<path fill="#3D3A39" d="M296.547,31.977c0,2.952-1.128,5.503-3.383,7.65c-2.256,2.148-4.933,3.174-8.033,3.078
					c-2.999-0.072-5.538-1.152-7.617-3.24s-3.119-4.572-3.119-7.452c0-3,1.121-5.573,3.364-7.722
					c2.243-2.147,4.914-3.174,8.014-3.078c2.999,0.097,5.543,1.194,7.636,3.294C295.501,26.607,296.547,29.097,296.547,31.977z
					 M293.675,31.76c-0.076-2.169-0.891-4.025-2.444-5.568c-1.553-1.543-3.428-2.314-5.625-2.314
					c-2.299-0.023-4.257,0.742-5.873,2.297c-1.617,1.555-2.438,3.429-2.462,5.622c-0.051,2.17,0.694,4.068,2.235,5.695
					c1.541,1.628,3.422,2.478,5.646,2.55c2.374,0.12,4.4-0.663,6.08-2.351C292.911,36.003,293.725,34.026,293.675,31.76z"/>
				<path fill="#3D3A39" d="M322.289,33.417c0,2.664-0.901,4.884-2.703,6.66c-1.802,1.776-4.077,2.664-6.823,2.664
					c-2.747,0-5.021-0.888-6.823-2.664c-1.802-1.776-2.703-3.996-2.703-6.66v-11.7h2.873v12.048c0,1.731,0.665,3.216,1.996,4.455
					c1.33,1.238,2.883,1.857,4.657,1.857c1.774,0,3.326-0.619,4.657-1.857c1.33-1.239,1.996-2.724,1.996-4.455V21.717h2.873V33.417z
					"/>
				<path fill="#3D3A39" d="M348.295,42.237h-2.873V30.249c0-1.729-0.666-3.216-1.996-4.464c-1.331-1.248-2.883-1.872-4.657-1.872
					c-1.799,0-3.365,0.624-4.695,1.872c-1.331,1.248-1.996,2.735-1.996,4.464v11.988h-2.873v-11.7c0-2.664,0.907-4.878,2.721-6.643
					c1.814-1.764,4.095-2.646,6.842-2.646c2.722,0,4.99,0.882,6.804,2.646c1.814,1.765,2.722,3.979,2.722,6.643V42.237z"/>
				<path fill="#3D3A39" d="M377.666,32.085c0.076,2.952-1.034,5.502-3.327,7.65c-2.293,2.147-4.989,3.174-8.089,3.077
					c-3-0.071-5.538-1.151-7.617-3.239c-2.079-2.088-3.119-4.572-3.119-7.452c0-3,1.119-5.574,3.358-7.723
					c2.238-2.147,4.904-3.173,7.998-3.077c3.169,0.12,5.81,1.332,7.922,3.636V14.625h2.873V32.085z M374.792,31.868
					c-0.051-2.169-0.852-4.025-2.405-5.568c-1.554-1.543-3.442-2.314-5.664-2.314c-2.274-0.024-4.226,0.741-5.854,2.296
					s-2.457,3.43-2.481,5.623c-0.025,2.17,0.732,4.068,2.273,5.695c1.541,1.627,3.422,2.478,5.646,2.549
					c2.374,0.121,4.4-0.663,6.08-2.351C374.066,36.11,374.868,34.134,374.792,31.868z"/>
				<path fill="#3D3A39" d="M406.62,31.94v0.145v10.152h-2.873v-3.204c-2.334,2.544-5.196,3.768-8.584,3.672
					c-2.962-0.096-5.485-1.188-7.568-3.276s-3.125-4.572-3.125-7.452c0-2.999,1.121-5.573,3.364-7.722
					c2.243-2.147,4.926-3.162,8.051-3.042c3.024,0.097,5.594,1.194,7.711,3.294C405.713,26.607,406.72,29.085,406.62,31.94z
					 M403.747,31.742c-0.051-2.164-0.858-4.017-2.425-5.557c-1.566-1.539-3.448-2.309-5.645-2.309c-2.299,0-4.257,0.77-5.874,2.309
					c-1.616,1.54-2.438,3.404-2.462,5.593c-0.051,2.165,0.701,4.06,2.255,5.683c1.553,1.624,3.428,2.483,5.626,2.58
					c2.375,0.096,4.401-0.691,6.081-2.363S403.797,34.027,403.747,31.742z"/>
				<path fill="#3D3A39" d="M421.286,42.669c-5.242,0-7.863-2.124-7.863-6.372v-21.78h2.873v7.164h4.99v2.557h-4.99v11.592
					c0,3.048,1.663,4.572,4.99,4.572V42.669z"/>
				<path fill="#3D3A39" d="M430.471,19.269h-2.873V14.48h2.873V19.269z M430.471,42.237h-2.873V21.717h2.873V42.237z"/>
				<path fill="#3D3A39" d="M459.539,31.977c0,2.952-1.128,5.503-3.383,7.65c-2.256,2.148-4.933,3.174-8.033,3.078
					c-2.999-0.072-5.538-1.152-7.617-3.24s-3.119-4.572-3.119-7.452c0-3,1.121-5.573,3.364-7.722
					c2.243-2.147,4.914-3.174,8.014-3.078c2.999,0.097,5.543,1.194,7.636,3.294C458.493,26.607,459.539,29.097,459.539,31.977z
					 M456.667,31.76c-0.076-2.169-0.891-4.025-2.444-5.568c-1.553-1.543-3.428-2.314-5.625-2.314
					c-2.299-0.023-4.257,0.742-5.873,2.297c-1.617,1.555-2.438,3.429-2.462,5.622c-0.051,2.17,0.694,4.068,2.235,5.695
					c1.541,1.628,3.422,2.478,5.646,2.55c2.374,0.12,4.4-0.663,6.08-2.351C455.902,36.003,456.717,34.026,456.667,31.76z"/>
				<path fill="#3D3A39" d="M485.243,42.237h-2.873V30.249c0-1.729-0.666-3.216-1.996-4.464c-1.331-1.248-2.883-1.872-4.657-1.872
					c-1.799,0-3.365,0.624-4.695,1.872c-1.331,1.248-1.996,2.735-1.996,4.464v11.988h-2.873v-11.7c0-2.664,0.907-4.878,2.721-6.643
					c1.814-1.764,4.095-2.646,6.842-2.646c2.722,0,4.99,0.882,6.804,2.646c1.814,1.765,2.722,3.979,2.722,6.643V42.237z"/>
			</g>
		</g>
		<g>
			<g>
				<g>
					<g>
						<linearGradient id="SVGID_1_" gradientUnits="userSpaceOnUse" x1="54.5557" y1="35.3984" x2="111.4556" y2="35.3984">
							<stop  offset="0.0015" style="stop-color:#246CB5"/>
							<stop  offset="0.2386" style="stop-color:#2968B1"/>
							<stop  offset="0.5798" style="stop-color:#335DA4"/>
							<stop  offset="0.9823" style="stop-color:#3D4C91"/>
							<stop  offset="1" style="stop-color:#3D4B90"/>
						</linearGradient>
						<path fill="url(#SVGID_1_)" d="M111.023,40.724c-0.268-0.2-0.862-0.242-1.03-0.514c-0.132-0.221-0.05-0.592-0.055-0.834
							c-0.009-0.384-0.153-0.726-0.398-1.005c-0.737-0.832-1.773-1.424-2.735-1.957c-4.433-2.455-9.839-4.635-14.855-5.459
							c-2.859-2.652-5.893-5.252-9.958-5.485c-1.713-0.099-3.173-0.165-3.243,0.409c-0.021,0.174,0.335,0.289,0.692,0.499
							c1.152,0.675,1.822,1.37,2.085,1.945c0.17,0.372,0.47,1.504-3.701,2.362c-4.993,1.027-16.156,7.491-20.709,10.868
							c-4.554,3.378-1.909,3.968-0.588,3.819c1.322-0.147,10.429-3.524,20.71-3.966c2.751-0.118,7.735-0.196,7.735-0.196
							l0.005-0.013c3.146-0.046,5.974,0.072,9.181,0.176c4.333,0.141,8.6,0.939,12.933,1.038c1.017,0.023,2.06,0.035,3.065-0.132
							c0.37-0.063,1.18-0.165,1.28-0.633C111.52,41.262,111.326,40.945,111.023,40.724z"/>
						<linearGradient id="SVGID_2_" gradientUnits="userSpaceOnUse" x1="54.5586" y1="37.4395" x2="109.9893" y2="37.4395">
							<stop  offset="0" style="stop-color:#243780"/>
							<stop  offset="0.2408" style="stop-color:#243981"/>
							<stop  offset="0.4534" style="stop-color:#253F86"/>
							<stop  offset="0.6553" style="stop-color:#25498E"/>
							<stop  offset="0.8494" style="stop-color:#25579B"/>
							<stop  offset="0.9985" style="stop-color:#2566A9"/>
						</linearGradient>
						<path opacity="0.7" fill="url(#SVGID_2_)" d="M56.423,42.093c-0.172,0.139-0.332,0.274-0.477,0.403
							c-0.025,0.023-0.049,0.046-0.074,0.067c-0.297,0.271-0.537,0.517-0.725,0.738c-0.01,0.014-0.021,0.027-0.032,0.038
							c-0.092,0.109-0.17,0.217-0.236,0.314c-0.007,0.012-0.013,0.02-0.019,0.031c-0.207,0.314-0.299,0.576-0.302,0.793
							c1.481-0.496,3.342-1.212,5.641-2.189c7.033-2.992,12.37-4.734,15.753-5.699c0.008,0.009,0.014,0.017,0.022,0.026
							c1.322-0.437,2.966-0.844,4.94-1.137c0.368-0.042,0.704-0.096,1.125-0.153c0.856-0.1,1.766-0.179,2.74-0.23
							c0.195-0.006,0.407-0.014,0.628-0.021c0.064-0.002,0.133-0.004,0.197-0.006c0.471-0.013,0.99-0.023,1.583-0.03l0,0
							c10.434,0.006,12.149,3.358,17.992,4.76c1.016,0.243,2.031,0.492,3.077,0.533c0.506,0.021,1.042,0.032,1.538-0.084
							c0.057-0.011,0.124-0.028,0.193-0.047c-0.125-0.22-0.046-0.586-0.051-0.824c-0.009-0.384-0.153-0.726-0.398-1.005
							c-0.737-0.832-1.773-1.424-2.735-1.957c-1.108-0.612-2.277-1.21-3.486-1.771c-3.625-1.688-7.606-3.07-11.369-3.688l0,0
							c0,0-0.003-0.003-0.004-0.004c-0.837-0.136-6.799-0.98-14.121-0.266c-4.993,1.027-16.156,7.491-20.709,10.868
							c-0.215,0.161-0.41,0.311-0.594,0.459C56.488,42.039,56.454,42.067,56.423,42.093z"/>
						
							<linearGradient id="SVGID_3_" gradientUnits="userSpaceOnUse" x1="-307.2446" y1="8.9082" x2="-297.9507" y2="8.9082" gradientTransform="matrix(1.021 -0.0638 0.0976 0.9248 359.5666 19.7312)">
							<stop  offset="0.0015" style="stop-color:#246CB5"/>
							<stop  offset="0.2386" style="stop-color:#2968B1"/>
							<stop  offset="0.5798" style="stop-color:#335DA4"/>
							<stop  offset="0.9823" style="stop-color:#3D4C91"/>
							<stop  offset="1" style="stop-color:#3D4B90"/>
						</linearGradient>
						<path fill="url(#SVGID_3_)" d="M47.697,47.99c-0.746,0.197-1.315-0.65-0.755-1.134c0.928-0.799,3.102-2.314,6.901-3.105
							c3.749-0.778,1.807,3.634,0.343,6.294c-0.517,0.937-2.114,0.577-2.114-0.48c0-0.021,0.001-0.044,0-0.065
							c0.021-2.171-2.043-2.2-3.203-1.883C48.423,47.736,48.036,47.9,47.697,47.99z"/>
						<linearGradient id="SVGID_4_" gradientUnits="userSpaceOnUse" x1="90.041" y1="47.5645" x2="95.1679" y2="40.5826">
							<stop  offset="0.0015" style="stop-color:#246CB5"/>
							<stop  offset="0.2386" style="stop-color:#2968B1"/>
							<stop  offset="0.5798" style="stop-color:#335DA4"/>
							<stop  offset="0.9823" style="stop-color:#3D4C91"/>
							<stop  offset="1" style="stop-color:#3D4B90"/>
						</linearGradient>
						<path fill="url(#SVGID_4_)" d="M98.102,40.955c-0.503,0.553-0.807,1.225-1.241,1.823c-0.624,0.862-1.47,1.449-2.438,1.902
							c-0.96,0.451-4.094,1.697-3.121-0.67c0.682-1.657,0.802-3.759,0.805-3.759C94.063,40.463,96.211,40.379,98.102,40.955z"/>
					</g>
					<path fill="#FFFFFF" d="M105.706,38.782c-0.001,0.006,2.711,1.603,2.711,1.603s-0.342,0.338-0.508,0.381
						c-0.465,0.123-1.073,0.005-1.477-0.252c-0.363-0.236-0.589-0.619-0.673-1.035C105.72,39.282,105.658,38.979,105.706,38.782z"/>
				</g>
				
					<linearGradient id="SVGID_5_" gradientUnits="userSpaceOnUse" x1="-256.5313" y1="-179.2441" x2="-246.5805" y2="-179.2441" gradientTransform="matrix(0.823 -0.568 0.568 0.823 401.3766 45.8396)">
					<stop  offset="0" style="stop-color:#3588B3"/>
					<stop  offset="0.2137" style="stop-color:#3685B2"/>
					<stop  offset="0.4364" style="stop-color:#387EAE"/>
					<stop  offset="0.6631" style="stop-color:#3B72A7"/>
					<stop  offset="0.8912" style="stop-color:#3F609E"/>
					<stop  offset="1" style="stop-color:#405698"/>
				</linearGradient>
				<path fill="url(#SVGID_5_)" d="M93.103,38.499c-2.229,1.753-3.377,2.955-5.375,4.207c-0.194,0.122-0.15,0.493,0.088,0.605
					c3.325,1.53,12.081-3.789,9.251-4.544C96.147,38.522,93.798,37.952,93.103,38.499z"/>
			</g>
			
				<linearGradient id="SVGID_6_" gradientUnits="userSpaceOnUse" x1="219.2964" y1="271.2383" x2="273.292" y2="271.2383" gradientTransform="matrix(0.978 0.2085 -0.2085 0.978 -124.8855 -275.3025)">
				<stop  offset="0" style="stop-color:#243780"/>
				<stop  offset="0.2408" style="stop-color:#243981"/>
				<stop  offset="0.4534" style="stop-color:#253F86"/>
				<stop  offset="0.6553" style="stop-color:#25498E"/>
				<stop  offset="0.8494" style="stop-color:#25579B"/>
				<stop  offset="0.9985" style="stop-color:#2566A9"/>
			</linearGradient>
			<path fill="url(#SVGID_6_)" d="M32.865,37.6c5.228-4.794,11.656-8.578,18.703-9.395c5.022-0.58,10.172,0.386,14.783,2.46
				c4.611,2.075,8.695,5.229,12.113,8.958c1.731,1.885,3.306,3.938,4.53,6.189c0.574,1.059,1.173,2.117,1.215,3.326
				c0.043,1.307-0.301,2.609-1.026,3.702c-0.101,0.153-0.207,0.3-0.323,0.442c0.694,0.947,1.136,2.142,0.926,3.301
				c-0.334,1.849-2.269,2.689-3.875,1.812c-1.917-1.048-3.031-2.993-4.333-4.665c-3.596-4.618-8.97-7.503-14.416-9.65
				c-7.468-2.943-15.386-4.749-23.393-5.331c-1.698-0.122-6.524,0.317-4.929-1.126C32.848,37.615,32.856,37.606,32.865,37.6z"/>
			<linearGradient id="SVGID_7_" gradientUnits="userSpaceOnUse" x1="59.0747" y1="28.4072" x2="68.8989" y2="28.4072">
				<stop  offset="0" style="stop-color:#3E8FB5;stop-opacity:0.3"/>
				<stop  offset="0.1236" style="stop-color:#499DBB;stop-opacity:0.3865"/>
				<stop  offset="0.294" style="stop-color:#54ACC0;stop-opacity:0.5058"/>
				<stop  offset="0.4812" style="stop-color:#5DB6C3;stop-opacity:0.6368"/>
				<stop  offset="0.6959" style="stop-color:#61BCC5;stop-opacity:0.7871"/>
				<stop  offset="1" style="stop-color:#63BEC6"/>
			</linearGradient>
			<path fill="url(#SVGID_7_)" d="M67.766,32.891c0.703,0.034,1.254-0.602,1.11-1.291c-0.505-2.428-2.399-5.174-4.609-6.378
				c-0.87-0.476-5.314-2.22-5.189-0.671c0.122,1.514,3.304,2.182,2.949,5.379C61.768,32.268,65.649,32.782,67.766,32.891z"/>
			
				<linearGradient id="SVGID_8_" gradientUnits="userSpaceOnUse" x1="-299.1621" y1="-88.2051" x2="-296" y2="-93.682" gradientTransform="matrix(0.9645 -0.2641 0.2641 0.9645 381.7623 59.3484)">
				<stop  offset="0" style="stop-color:#3588B3"/>
				<stop  offset="0.2137" style="stop-color:#3685B2"/>
				<stop  offset="0.4364" style="stop-color:#387EAE"/>
				<stop  offset="0.6631" style="stop-color:#3B72A7"/>
				<stop  offset="0.8912" style="stop-color:#3F609E"/>
				<stop  offset="1" style="stop-color:#405698"/>
			</linearGradient>
			<path fill="url(#SVGID_8_)" d="M69.751,47.506c0.043,0.008-0.728,1.123-0.784,1.183c-0.795,0.839-1.84,0.981-2.905,1.237
				c-0.546,0.131-1.932,0.409-1.77,1.238c0.229,1.178,3.484,1.394,4.314,1.42c1.313,0.043,2.793-0.066,4.064-0.398
				c4.259-1.107,5.346-1.903,3.525-3.796C76.196,48.39,69.772,47.511,69.751,47.506z"/>
			
				<linearGradient id="SVGID_9_" gradientUnits="userSpaceOnUse" x1="-162.7622" y1="9.9648" x2="-149.4937" y2="9.9648" gradientTransform="matrix(0.9916 -0.1295 0.1295 0.9916 182.8033 10.7024)">
				<stop  offset="0.0054" style="stop-color:#3588B3;stop-opacity:0.2"/>
				<stop  offset="0.2849" style="stop-color:#4499BA;stop-opacity:0.66"/>
				<stop  offset="0.7245" style="stop-color:#59B2C2;stop-opacity:0.869"/>
				<stop  offset="1" style="stop-color:#63BEC6"/>
			</linearGradient>
			<path fill="url(#SVGID_9_)" d="M30.477,46.125c0.909,0.461,2.109-0.394,2.759-1.281c1.232-1.693,3.06-4.594,2.308-6.828
				c-1.169-3.471-9.236-3.177-12.726-1.56c-2.348,1.089,1.684,1.552,3.577,2.025c1.878,0.471,2.658,1.948,2.929,3.741
				c0.16,1.064-0.024,2.448,0.604,3.39C30.09,45.857,30.276,46.024,30.477,46.125z"/>
			<linearGradient id="SVGID_10_" gradientUnits="userSpaceOnUse" x1="59.0586" y1="44.7832" x2="82.7001" y2="40.5615">
				<stop  offset="0.0054" style="stop-color:#3588B3;stop-opacity:0.2"/>
				<stop  offset="0.176" style="stop-color:#3F92B7;stop-opacity:0.3373"/>
				<stop  offset="0.7261" style="stop-color:#59B2C2;stop-opacity:0.7797"/>
				<stop  offset="1" style="stop-color:#63BEC6"/>
			</linearGradient>
			<path fill="url(#SVGID_10_)" d="M83.184,52.841c0.726-1.093,1.069-2.396,1.026-3.702c-0.042-1.209-0.641-2.268-1.215-3.326
				c-0.303-0.559-0.627-1.102-0.97-1.632c-0.146-0.229-0.309-0.444-0.461-0.669c-0.203-0.297-0.399-0.598-0.614-0.888
				c-0.212-0.288-0.439-0.566-0.661-0.846c-0.169-0.215-0.332-0.433-0.505-0.642c-0.235-0.285-0.481-0.557-0.724-0.834
				c-0.16-0.184-0.316-0.369-0.479-0.549c-0.618,0.29-1.269,0.488-1.945,0.549l0.011,0.036c-0.838,0.117-1.756,0.112-2.762-0.073
				c-0.175-0.029-0.344-0.067-0.511-0.104c-2.747-0.956-4.821-3.447-5.086-6.534c-0.058-0.666-0.016-1.322,0.095-1.954
				c-0.001,0-0.002,0-0.003,0c-0.429-0.23-0.865-0.445-1.304-0.656c-2.688,1.36-4.422,4.25-4.149,7.436
				c0.019,0.212,0.051,0.419,0.086,0.626c0,0-9.488-2.629-9.861-10.996c-0.528,0.026-1.057,0.063-1.584,0.123
				c-2.324,0.27-4.579,0.865-6.748,1.713c-0.133,0.05-0.262,0.111-0.395,0.164c-1.5,3.498-1.518,6.992-1.283,9.255
				c1.374,0.193,2.743,0.424,4.104,0.688c0.042,0.011,0.082,0.017,0.125,0.027c0.899,0.178,1.796,0.366,2.689,0.574
				c0.116,0.028,0.229,0.058,0.346,0.088c0.819,0.193,1.637,0.396,2.45,0.617c0.231,0.063,0.462,0.133,0.694,0.199
				c0.697,0.196,1.396,0.394,2.087,0.609c0.413,0.128,0.82,0.271,1.231,0.403c0.512,0.169,1.028,0.331,1.538,0.511
				c0.924,0.324,1.843,0.668,2.754,1.025c5.446,2.147,10.82,5.032,14.416,9.65c1.302,1.672,2.416,3.617,4.333,4.665
				c1.606,0.878,3.541,0.037,3.875-1.812c0.21-1.159-0.231-2.354-0.926-3.301C82.977,53.141,83.083,52.994,83.184,52.841z"/>
			<circle fill="#FFFFFF" cx="77.528" cy="48.518" r="1.436"/>
			<linearGradient id="SVGID_11_" gradientUnits="userSpaceOnUse" x1="61.1421" y1="46.7813" x2="72.5772" y2="46.7813">
				<stop  offset="0" style="stop-color:#3E8FB5;stop-opacity:0.3"/>
				<stop  offset="0.1236" style="stop-color:#499DBB;stop-opacity:0.3865"/>
				<stop  offset="0.294" style="stop-color:#54ACC0;stop-opacity:0.5058"/>
				<stop  offset="0.4812" style="stop-color:#5DB6C3;stop-opacity:0.6368"/>
				<stop  offset="0.6959" style="stop-color:#61BCC5;stop-opacity:0.7871"/>
				<stop  offset="1" style="stop-color:#63BEC6"/>
			</linearGradient>
			<path fill="url(#SVGID_11_)" d="M69.743,44.684c-3.483,0.215-5.486,0.629-8.385,0.503c-0.282-0.015-0.499,0.394-0.334,0.672
				c2.298,3.877,14.013,3.798,11.673,1.052C71.938,46.021,70.831,44.614,69.743,44.684z"/>
			<g>
				<linearGradient id="SVGID_12_" gradientUnits="userSpaceOnUse" x1="32.3525" y1="16.2295" x2="40.1538" y2="16.2295">
					<stop  offset="0" style="stop-color:#44448F"/>
					<stop  offset="0.2375" style="stop-color:#444690"/>
					<stop  offset="0.42" style="stop-color:#434C93"/>
					<stop  offset="0.5843" style="stop-color:#425698"/>
					<stop  offset="0.7378" style="stop-color:#3F64A0"/>
					<stop  offset="0.8824" style="stop-color:#3B76AA"/>
					<stop  offset="1" style="stop-color:#3588B3"/>
				</linearGradient>
				<path fill="url(#SVGID_12_)" d="M38.934,11.394c-0.576,2.001-1.748,3.608-3.062,5.189c-1.192,1.436-2.365,3.019-3.643,4.372
					c-0.227,0.24-0.064,0.625,0.264,0.637c2.737,0.096,4.797-1.26,6.582-3.237c1.659-1.839,2.781-4.978,1.223-7.14
					C39.931,10.707,39.125,10.73,38.934,11.394L38.934,11.394z"/>
				
					<linearGradient id="SVGID_13_" gradientUnits="userSpaceOnUse" x1="-376.2827" y1="119.6973" x2="-322.8984" y2="119.6973" gradientTransform="matrix(0.9624 -0.2717 0.2717 0.9624 333.759 -193.4565)">
					<stop  offset="0" style="stop-color:#3588B3"/>
					<stop  offset="0.0658" style="stop-color:#3782B0"/>
					<stop  offset="0.5009" style="stop-color:#40629E"/>
					<stop  offset="0.8251" style="stop-color:#434C93"/>
					<stop  offset="1" style="stop-color:#44448F"/>
				</linearGradient>
				<path fill="url(#SVGID_13_)" d="M54.33,5.491c-0.019-0.436-0.144-0.853-0.392-1.172c-1.383-1.774-3.635,0.308-5.336-0.442
					c-0.962-0.425-1.516-1.413-2.238-2.123c-0.738-0.725-1.616-1.313-2.629-1.569c-2.049-0.517-4.335,0.151-6.29,0.773
					c-1.063,0.339-2.135,0.673-3.186,1.056C20.151,7.14,5.937,18.463,7.309,35.079c0.1,1.204,1.62,1.665,2.359,0.71
					c2.986-3.861,9.469-11.268,18.509-16.189c4.702-2.563,9.615-4.71,14.528-6.831c2.354-1.015,4.878-1.922,7.231-3.049
					c1.308-0.625,2.707-1.25,3.729-2.309C54.117,6.946,54.361,6.193,54.33,5.491z"/>
				
					<linearGradient id="SVGID_14_" gradientUnits="userSpaceOnUse" x1="-532.4048" y1="-218.5879" x2="-518.9746" y2="-218.5879" gradientTransform="matrix(0.8845 -0.4665 0.4665 0.8845 573.1373 -10.1609)">
					<stop  offset="0" style="stop-color:#3588B3"/>
					<stop  offset="0.2375" style="stop-color:#3686B2;stop-opacity:0.9762"/>
					<stop  offset="0.42" style="stop-color:#3880AF;stop-opacity:0.958"/>
					<stop  offset="0.5843" style="stop-color:#3B77AA;stop-opacity:0.9416"/>
					<stop  offset="0.7378" style="stop-color:#3E69A2;stop-opacity:0.9262"/>
					<stop  offset="0.8824" style="stop-color:#425798;stop-opacity:0.9118"/>
					<stop  offset="1" style="stop-color:#44448F;stop-opacity:0.9"/>
				</linearGradient>
				<path fill="url(#SVGID_14_)" d="M1.736,44.924c-0.844,0.711-2.082-0.19-1.646-1.203c0.724-1.682,2.625-5.105,7.054-8.412
					c4.371-3.262,4.483,4.209,4.174,8.881c-0.11,1.644-2.382,2.036-3.01,0.508c-0.013-0.026-0.024-0.059-0.037-0.09
					c-1.263-3.143-3.939-2.01-5.247-0.89C2.521,44.146,2.12,44.601,1.736,44.924z"/>
				
					<linearGradient id="SVGID_15_" gradientUnits="userSpaceOnUse" x1="-518.4688" y1="-227.2998" x2="-467.1104" y2="-227.2998" gradientTransform="matrix(0.8845 -0.4665 0.4665 0.8845 573.1373 -10.1609)">
					<stop  offset="0" style="stop-color:#44448F"/>
					<stop  offset="0.1749" style="stop-color:#434C93;stop-opacity:0.8426"/>
					<stop  offset="0.4991" style="stop-color:#40629E;stop-opacity:0.5508"/>
					<stop  offset="0.9342" style="stop-color:#3782B0;stop-opacity:0.1592"/>
					<stop  offset="1" style="stop-color:#3588B3;stop-opacity:0.1"/>
				</linearGradient>
				<path fill="url(#SVGID_15_)" d="M54.03,6.867c-0.483,0.651-1.334,1.312-2.798,1.899c-2.875,1.159-6.334,1.255-9.358,1.764
					C29.563,12.6,18.92,19.539,12.728,30.413c-0.713,1.254-1.228,3.097-2.125,4.202c3.291-4.053,9.376-10.551,17.574-15.016
					c4.702-2.563,9.615-4.71,14.528-6.831c2.354-1.015,4.878-1.922,7.231-3.049c1.308-0.625,2.707-1.25,3.729-2.309
					C53.814,7.261,53.931,7.071,54.03,6.867z"/>
				
					<linearGradient id="SVGID_16_" gradientUnits="userSpaceOnUse" x1="-503.083" y1="-241.918" x2="-486.6987" y2="-241.918" gradientTransform="matrix(0.8845 -0.4665 0.4665 0.8845 573.1373 -10.1609)">
					<stop  offset="0" style="stop-color:#3588B3"/>
					<stop  offset="0.0658" style="stop-color:#3782B0"/>
					<stop  offset="0.5009" style="stop-color:#40629E"/>
					<stop  offset="0.8251" style="stop-color:#434C93"/>
					<stop  offset="1" style="stop-color:#44448F"/>
				</linearGradient>
				<path fill="url(#SVGID_16_)" d="M30.494,4.23c0,0-2.736-1.391-6.157-0.929c-2.784,0.374-5.564,1.716-7.627,3.618
					c-0.282,0.26-3.018,3.256-1.203,3.109c1.64-0.132,5.075-2.188,6.888-1.066C24.207,10.081,28.574,7.074,30.494,4.23z"/>
				<path fill="#FFFFFF" d="M39.435,4.94l0.635-1.128l0.002,0.019c0.033-0.031,1.547,0.784,1.547,0.784s0.995-1.733,1.45-0.752
					c0,0,0.528,1.387-1.629,1.738C40.561,5.744,39.435,4.94,39.435,4.94z"/>
				
					<linearGradient id="SVGID_17_" gradientUnits="userSpaceOnUse" x1="-82.3569" y1="-6.7559" x2="-76.6398" y2="-13.7571" gradientTransform="matrix(0.9645 -0.2638 0.2638 0.9645 110.6592 1.9448)">
					<stop  offset="0" style="stop-color:#3588B3"/>
					<stop  offset="0.2137" style="stop-color:#3685B2"/>
					<stop  offset="0.4364" style="stop-color:#387EAE"/>
					<stop  offset="0.6631" style="stop-color:#3B72A7"/>
					<stop  offset="0.8912" style="stop-color:#3F609E"/>
					<stop  offset="1" style="stop-color:#405698"/>
				</linearGradient>
				<path fill="url(#SVGID_17_)" d="M35.521,10.137c-1.362,1.318-2.986,2.068-4.728,2.761c-1.693,0.674-3.496,1.429-5.233,1.969
					c-0.297,0.091-0.348,0.483-0.082,0.646c3.582,2.187,11.791,0.38,11.252-4.882C36.669,10.029,35.997,9.678,35.521,10.137
					L35.521,10.137z"/>
				
					<linearGradient id="SVGID_18_" gradientUnits="userSpaceOnUse" x1="-596.8413" y1="-266.752" x2="-566.1294" y2="-266.752" gradientTransform="matrix(0.8589 -0.5121 0.5121 0.8589 657.3532 -55.9905)">
					<stop  offset="0" style="stop-color:#44448F"/>
					<stop  offset="0.1749" style="stop-color:#434C93;stop-opacity:0.8426"/>
					<stop  offset="0.4991" style="stop-color:#40629E;stop-opacity:0.5508"/>
					<stop  offset="0.9342" style="stop-color:#3782B0;stop-opacity:0.1592"/>
					<stop  offset="1" style="stop-color:#3588B3;stop-opacity:0.1"/>
				</linearGradient>
				<path fill="url(#SVGID_18_)" d="M30.773,7.119c-4.449,0.702-8.622,2.122-12.455,4.132c-3.726,3.331-6.822,7.233-8.786,11.653
					c1.722-1.676,3.473-3.319,5.293-4.891c7.241-6.24,15.669-9.725,20.741-11.414C34.185,7.063,32.232,6.889,30.773,7.119z"/>
			</g>
			<path fill="#FFFFFF" d="M81.969,58.557c-0.161-0.166-0.366-0.322-0.511-0.562c-0.079-0.113-0.169-0.225-0.247-0.349
				c-0.064-0.133-0.131-0.271-0.199-0.411c-0.08-0.136-0.117-0.296-0.169-0.453c-0.046-0.16-0.113-0.313-0.142-0.488
				c-0.036-0.171-0.073-0.344-0.11-0.521c-0.024-0.181-0.053-0.363-0.085-0.548c-0.053-0.377-0.105-0.759-0.158-1.142
				c-0.055-0.386-0.136-0.778-0.212-1.161c-0.104-0.384-0.198-0.762-0.359-1.111c-0.125-0.363-0.329-0.675-0.515-0.972
				c-0.184-0.3-0.436-0.526-0.628-0.757c-0.227-0.206-0.458-0.368-0.649-0.518c-0.188-0.154-0.389-0.218-0.536-0.305
				c-0.307-0.152-0.483-0.238-0.483-0.238s0.148,0.129,0.407,0.352c0.123,0.116,0.309,0.229,0.458,0.405
				c0.15,0.17,0.322,0.36,0.508,0.57c0.146,0.242,0.341,0.474,0.481,0.759c0.139,0.286,0.287,0.582,0.385,0.918
				c0.131,0.318,0.18,0.684,0.274,1.038c0.064,0.367,0.135,0.737,0.181,1.122c0.062,0.383,0.123,0.77,0.184,1.147
				c0.061,0.386,0.157,0.761,0.269,1.127c0.044,0.182,0.122,0.356,0.196,0.528c0.075,0.168,0.136,0.337,0.241,0.483
				c0.096,0.15,0.188,0.294,0.277,0.435c0.106,0.128,0.226,0.24,0.33,0.353c0.165,0.201,0.37,0.326,0.552,0.445
				c0.113-0.022,0.225-0.046,0.334-0.081C82.017,58.598,81.993,58.582,81.969,58.557z"/>
		</g>
	</g>
</g>
<g id="圖層_3" display="none">
</g>
<g id="圖層_2" display="none">
</g>
</svg>
