<?xml version="1.0" encoding="utf-8"?>
<!-- Generator: Adobe Illustrator 16.0.0, SVG Export Plug-In . SVG Version: 6.00 Build 0)  -->
<!DOCTYPE svg PUBLIC "-//W3C//DTD SVG 1.1//EN" "http://www.w3.org/Graphics/SVG/1.1/DTD/svg11.dtd">
<svg version="1.1" xmlns="http://www.w3.org/2000/svg" xmlns:xlink="http://www.w3.org/1999/xlink" x="0px" y="0px"
	 width="485.246px" height="58.745px" viewBox="0 0 485.246 58.745" enable-background="new 0 0 485.246 58.745"
	 xml:space="preserve">
<g id="圖層_1">
	<g>
		<g>
			<path fill="#FFFFFF" d="M143.894,36.015c0.151,1.848-0.529,3.45-2.041,4.806c-1.512,1.356-3.251,1.975-5.217,1.854
				c-1.814-0.12-3.333-0.816-4.555-2.089c-1.223-1.271-1.833-2.783-1.833-4.535h2.986v0.689c0,0.703,0.403,1.43,1.209,2.18
				c0.806,0.751,1.664,1.114,2.571,1.091c1.209-0.024,2.167-0.373,2.873-1.048c0.629-0.625,0.958-1.444,0.983-2.456
				c0.025-1.757-1.022-2.961-3.142-3.611l-2.529-0.766c-2.646-0.792-4.031-2.509-4.157-5.149c-0.076-1.585,0.487-2.941,1.688-4.069
				c1.2-1.129,2.648-1.729,4.342-1.801c1.466-0.072,2.836,0.378,4.113,1.35c1.276,0.973,1.965,2.179,2.067,3.618v0.612h-3.024
				v-0.474c0-0.729-0.321-1.318-0.964-1.769c-0.643-0.449-1.38-0.674-2.211-0.674c-0.807,0.024-1.506,0.302-2.098,0.832
				c-0.592,0.531-0.901,1.194-0.926,1.991c-0.101,1.472,0.818,2.521,2.759,3.148l2.495,0.796
				C142.155,31.479,143.692,33.303,143.894,36.015z"/>
			<path fill="#FFFFFF" d="M172.622,31.874c0,2.952-1.128,5.503-3.383,7.65c-2.256,2.148-4.933,3.174-8.033,3.078
				c-2.999-0.072-5.538-1.152-7.617-3.24s-3.119-4.572-3.119-7.452c0-3,1.121-5.573,3.364-7.722
				c2.243-2.147,4.914-3.174,8.014-3.078c2.999,0.096,5.543,1.194,7.636,3.294C171.576,26.505,172.622,28.994,172.622,31.874z
				 M169.749,31.657c-0.076-2.169-0.891-4.025-2.444-5.568c-1.553-1.543-3.428-2.314-5.625-2.314
				c-2.299-0.023-4.257,0.742-5.873,2.297c-1.617,1.555-2.438,3.429-2.462,5.622c-0.051,2.17,0.694,4.068,2.235,5.695
				c1.541,1.628,3.422,2.478,5.646,2.55c2.374,0.12,4.4-0.663,6.08-2.351S169.799,33.924,169.749,31.657z"/>
			<path fill="#FFFFFF" d="M201.879,31.982c0.075,2.952-1.034,5.502-3.327,7.65c-2.293,2.147-4.989,3.174-8.089,3.077
				c-3-0.071-5.538-1.151-7.617-3.239c-2.079-2.088-3.119-4.572-3.119-7.452c0-3,1.119-5.574,3.358-7.723
				c2.238-2.147,4.904-3.173,7.998-3.078c3.169,0.121,5.81,1.332,7.922,3.637V14.522h2.873V31.982z M199.006,31.766
				c-0.051-2.17-0.852-4.025-2.406-5.568c-1.553-1.543-3.441-2.315-5.664-2.315c-2.273-0.023-4.225,0.742-5.854,2.297
				s-2.457,3.43-2.481,5.623c-0.025,2.17,0.732,4.068,2.273,5.695c1.541,1.627,3.422,2.478,5.645,2.549
				c2.375,0.121,4.401-0.663,6.081-2.351S199.082,34.031,199.006,31.766z"/>
			<path fill="#FFFFFF" d="M230.833,31.838v0.145v10.152h-2.873v-3.204c-2.334,2.544-5.196,3.768-8.584,3.672
				c-2.962-0.096-5.485-1.188-7.568-3.276s-3.125-4.572-3.125-7.452c0-3,1.121-5.573,3.364-7.722
				c2.243-2.147,4.926-3.162,8.051-3.042c3.024,0.096,5.594,1.194,7.711,3.294C229.926,26.505,230.933,28.982,230.833,31.838z
				 M227.96,31.64c-0.051-2.164-0.859-4.017-2.425-5.557c-1.566-1.539-3.448-2.309-5.645-2.309c-2.298,0-4.256,0.77-5.873,2.309
				c-1.616,1.54-2.438,3.404-2.462,5.593c-0.051,2.165,0.701,4.06,2.254,5.683c1.554,1.624,3.429,2.483,5.626,2.58
				c2.375,0.096,4.401-0.691,6.081-2.363S228.01,33.925,227.96,31.64z"/>
		</g>
		<g>
			<path fill="#FFFFFF" d="M268.23,24.235h-5.443v18.001h-2.873V21.319c0-2.184,0.706-3.869,2.117-5.058
				c1.411-1.188,3.225-1.782,5.443-1.782h0.756v2.448h-0.762c-1.522,0.072-2.601,0.411-3.235,1.016
				c-0.964,0.968-1.446,1.935-1.446,2.901v0.871h5.443V24.235z"/>
			<path fill="#FFFFFF" d="M296.542,31.976c0,2.952-1.128,5.503-3.383,7.65c-2.256,2.148-4.933,3.174-8.033,3.078
				c-2.999-0.072-5.538-1.152-7.617-3.24s-3.119-4.572-3.119-7.452c0-3,1.121-5.573,3.364-7.722
				c2.243-2.147,4.914-3.174,8.014-3.078c2.999,0.096,5.543,1.194,7.636,3.294C295.496,26.606,296.542,29.096,296.542,31.976z
				 M293.669,31.759c-0.076-2.169-0.891-4.025-2.444-5.568c-1.553-1.543-3.428-2.314-5.625-2.314
				c-2.299-0.023-4.257,0.742-5.873,2.297c-1.617,1.555-2.438,3.429-2.462,5.622c-0.051,2.17,0.694,4.068,2.235,5.695
				c1.541,1.628,3.422,2.478,5.646,2.55c2.374,0.12,4.4-0.663,6.08-2.351S293.719,34.025,293.669,31.759z"/>
			<path fill="#FFFFFF" d="M322.283,33.416c0,2.664-0.901,4.884-2.703,6.66c-1.802,1.776-4.077,2.664-6.823,2.664
				c-2.747,0-5.021-0.888-6.823-2.664c-1.802-1.776-2.703-3.996-2.703-6.66v-11.7h2.873v12.048c0,1.731,0.665,3.216,1.996,4.455
				c1.33,1.238,2.883,1.857,4.657,1.857c1.774,0,3.326-0.619,4.657-1.857c1.33-1.239,1.996-2.724,1.996-4.455V21.716h2.873V33.416z"
				/>
			<path fill="#FFFFFF" d="M348.29,42.236h-2.873V30.248c0-1.729-0.666-3.216-1.996-4.464c-1.331-1.248-2.883-1.872-4.657-1.872
				c-1.799,0-3.365,0.624-4.695,1.872c-1.331,1.248-1.996,2.735-1.996,4.464v11.988h-2.873v-11.7c0-2.664,0.907-4.878,2.721-6.643
				c1.814-1.764,4.095-2.646,6.842-2.646c2.722,0,4.99,0.882,6.804,2.646c1.814,1.765,2.722,3.979,2.722,6.643V42.236z"/>
			<path fill="#FFFFFF" d="M377.66,32.084c0.075,2.952-1.034,5.502-3.327,7.65c-2.293,2.147-4.989,3.174-8.089,3.077
				c-3-0.071-5.538-1.151-7.617-3.239c-2.079-2.088-3.119-4.572-3.119-7.452c0-3,1.119-5.574,3.358-7.723
				c2.238-2.147,4.904-3.173,7.998-3.078c3.169,0.121,5.81,1.332,7.922,3.637V14.624h2.873V32.084z M374.787,31.867
				c-0.051-2.17-0.852-4.025-2.406-5.568c-1.553-1.543-3.441-2.315-5.664-2.315c-2.273-0.023-4.225,0.742-5.854,2.297
				s-2.457,3.43-2.481,5.623c-0.025,2.17,0.732,4.068,2.273,5.695c1.541,1.627,3.422,2.478,5.645,2.549
				c2.375,0.121,4.401-0.663,6.081-2.351S374.862,34.133,374.787,31.867z"/>
			<path fill="#FFFFFF" d="M406.614,31.939v0.145v10.152h-2.873v-3.204c-2.334,2.544-5.196,3.768-8.584,3.672
				c-2.962-0.096-5.485-1.188-7.568-3.276s-3.125-4.572-3.125-7.452c0-3,1.121-5.573,3.364-7.722
				c2.243-2.147,4.926-3.162,8.051-3.042c3.024,0.096,5.594,1.194,7.711,3.294C405.707,26.606,406.714,29.084,406.614,31.939z
				 M403.741,31.741c-0.051-2.164-0.859-4.017-2.425-5.557c-1.566-1.539-3.448-2.309-5.645-2.309c-2.298,0-4.256,0.77-5.873,2.309
				c-1.616,1.54-2.438,3.404-2.462,5.593c-0.051,2.165,0.701,4.06,2.254,5.683c1.554,1.624,3.429,2.483,5.626,2.58
				c2.375,0.096,4.401-0.691,6.081-2.363S403.792,34.026,403.741,31.741z"/>
			<path fill="#FFFFFF" d="M421.28,42.668c-5.242,0-7.863-2.124-7.863-6.372v-21.78h2.873v7.164h4.99v2.556h-4.99v11.593
				c0,3.048,1.663,4.572,4.99,4.572V42.668z"/>
			<path fill="#FFFFFF" d="M430.465,19.268h-2.873v-4.788h2.873V19.268z M430.465,42.236h-2.873V21.716h2.873V42.236z"/>
			<path fill="#FFFFFF" d="M459.533,31.976c0,2.952-1.128,5.503-3.383,7.65c-2.256,2.148-4.933,3.174-8.033,3.078
				c-2.999-0.072-5.538-1.152-7.617-3.24s-3.119-4.572-3.119-7.452c0-3,1.121-5.573,3.364-7.722
				c2.243-2.147,4.914-3.174,8.014-3.078c2.999,0.096,5.543,1.194,7.636,3.294C458.487,26.606,459.533,29.096,459.533,31.976z
				 M456.66,31.759c-0.076-2.169-0.891-4.025-2.444-5.568c-1.553-1.543-3.428-2.314-5.625-2.314
				c-2.299-0.023-4.257,0.742-5.873,2.297c-1.617,1.555-2.438,3.429-2.462,5.622c-0.051,2.17,0.694,4.068,2.235,5.695
				c1.541,1.628,3.422,2.478,5.646,2.55c2.374,0.12,4.4-0.663,6.08-2.351S456.71,34.025,456.66,31.759z"/>
			<path fill="#FFFFFF" d="M485.237,42.236h-2.873V30.248c0-1.729-0.666-3.216-1.996-4.464c-1.331-1.248-2.883-1.872-4.657-1.872
				c-1.799,0-3.365,0.624-4.695,1.872c-1.331,1.248-1.996,2.735-1.996,4.464v11.988h-2.873v-11.7c0-2.664,0.907-4.878,2.721-6.643
				c1.814-1.764,4.095-2.646,6.842-2.646c2.722,0,4.99,0.882,6.804,2.646c1.814,1.765,2.722,3.979,2.722,6.643V42.236z"/>
		</g>
		<g>
			<path fill="#FFFFFF" d="M95.104,31.645c1.732,0.455,3.472,1.035,5.176,1.705C98.576,32.68,96.836,32.1,95.104,31.645z"/>
			<path fill="#FFFFFF" d="M77.815,30.685c7.323-0.711,13.282,0.13,14.12,0.269c0,0,0.002,0,0.006,0
				c-2.861-2.65-5.894-5.247-9.959-5.484c-1.713-0.094-3.173-0.162-3.242,0.411c-0.021,0.174,0.334,0.288,0.691,0.498
				c1.154,0.676,1.822,1.371,2.084,1.948C81.688,28.697,81.986,29.827,77.815,30.685z"/>
			<path fill="#FFFFFF" d="M91.941,30.953c0.845,0.139,1.704,0.328,2.565,0.541C93.645,31.283,92.786,31.092,91.941,30.953z"/>
			<path fill="#FFFFFF" d="M109.91,39.795c0.003-0.148,0.021-0.299,0.017-0.418C109.93,39.496,109.913,39.646,109.91,39.795z"/>
			<path fill="#FFFFFF" d="M56.305,42.183c0.015-0.014,0.027-0.023,0.043-0.038C56.333,42.159,56.32,42.169,56.305,42.183z"/>
			<path fill="#FFFFFF" d="M95.104,31.645c1.732,0.455,3.472,1.035,5.176,1.705C98.576,32.68,96.836,32.1,95.104,31.645z"/>
			<path fill="#FFFFFF" d="M77.815,30.685c7.323-0.711,13.282,0.13,14.12,0.269c0,0,0.002,0,0.006,0
				c-2.861-2.65-5.894-5.247-9.959-5.484c-1.713-0.094-3.173-0.162-3.242,0.411c-0.021,0.174,0.334,0.288,0.691,0.498
				c1.154,0.676,1.822,1.371,2.084,1.948C81.688,28.697,81.986,29.827,77.815,30.685z"/>
			<path fill="#FFFFFF" d="M109.91,39.795c0.003-0.148,0.021-0.299,0.017-0.418C109.93,39.496,109.913,39.646,109.91,39.795z"/>
			<path fill="#FFFFFF" d="M91.941,30.953c0.845,0.139,1.704,0.328,2.565,0.541C93.645,31.283,92.786,31.092,91.941,30.953z"/>
			<path fill="#FFFFFF" d="M55.811,42.615c-0.251,0.231-0.458,0.443-0.627,0.639C55.351,43.061,55.561,42.847,55.811,42.615z"/>
			<path fill="#FFFFFF" d="M54.558,44.443c0.005-0.088,0.024-0.18,0.057-0.279C54.582,44.266,54.563,44.355,54.558,44.443z"/>
			<path fill="#FFFFFF" d="M54.647,44.073c0.042-0.103,0.101-0.216,0.175-0.333C54.749,43.857,54.689,43.969,54.647,44.073z"/>
			<path fill="#FFFFFF" d="M54.884,43.637c0.033-0.047,0.074-0.099,0.111-0.15C54.958,43.538,54.917,43.59,54.884,43.637z"/>
			<path fill="#FFFFFF" d="M47.689,47.991c-0.747,0.197-1.318-0.652-0.756-1.134c0.928-0.799,3.102-2.313,6.902-3.105
				c3.746-0.779,1.804,3.635,0.34,6.294c-0.516,0.937-2.112,0.577-2.112-0.482c0-0.02,0-0.044,0-0.067
				c0.02-2.169-2.044-2.196-3.203-1.881C48.413,47.738,48.027,47.9,47.689,47.991z"/>
			<path fill="#FFFFFF" d="M89.499,29.521c0,0,3.282,2.121,2.505,1.953c-7.46-1.602-13.276-0.506-13.276-0.506
				s0.97-0.63,1.939-0.926c0.969-0.297,4.046-0.547,4.172-0.506S89.499,29.521,89.499,29.521z"/>
			<path fill="#FFFFFF" d="M109.882,39.898c0.002-0.01,0.005-0.02,0.007-0.031c0.13-0.576-0.775-1.684-1.222-1.939
				c-0.884-0.505-6.949-4.296-16.425-6.822c-9.477-2.527-10.613-1.138-10.613-1.138s-4.043,0.759-4.928,1.011
				c-0.885,0.253-5.847,2.828-5.847,2.828s4.331,3.363,5.468,4.5c0.11,0.111,0.234,0.231,0.358,0.353
				c-0.603-0.634-1.215-1.255-1.779-1.794c0.224-0.065,0.465-0.139,0.674-0.197c0.006,0.008,0.014,0.016,0.024,0.023
				c1.333-0.443,2.995-0.852,4.992-1.146c0.374-0.044,0.711-0.096,1.137-0.156c0.867-0.1,1.787-0.184,2.769-0.235
				c0.198-0.004,0.414-0.012,0.635-0.02c0.066-0.004,0.136-0.004,0.202-0.004c0.475-0.017,1-0.024,1.598-0.032
				c10.547,0.004,12.281,3.395,18.186,4.813c1.026,0.243,2.054,0.494,3.109,0.535C108.815,40.469,109.692,40.628,109.882,39.898z
				 M106.35,38.491c-0.471,0.157-1.102,0.075-1.538-0.158c-0.39-0.22-0.648-0.598-0.763-1.023c-0.055-0.195-0.139-0.505-0.104-0.713
				c0.001,0.009,2.902,1.465,2.902,1.465S106.517,38.434,106.35,38.491z"/>
			<g>
				<g>
					<g>
						<path fill="#FFFFFF" d="M47.689,47.991c-0.747,0.197-1.318-0.652-0.756-1.134c0.928-0.799,3.102-2.313,6.902-3.105
							c3.746-0.779,1.804,3.635,0.34,6.294c-0.516,0.937-2.112,0.577-2.112-0.482c0-0.02,0-0.044,0-0.067
							c0.02-2.169-2.044-2.196-3.203-1.881C48.413,47.738,48.027,47.9,47.689,47.991z"/>
					</g>
					<path fill="#FFFFFF" d="M60.946,43.646c-0.93,0.253-1.779,0.492-2.452,0.686c-0.986,0.285-1.765,0.508-2.033,0.537
						c-0.102,0.012-0.213,0.018-0.327,0.018c-0.604,0-1.02-0.168-1.074-0.329c-0.008-0.028-0.148-0.65,1.982-2.31
						c-0.204-0.069-0.397-0.135-0.578-0.195c-3.292,2.658-1.61,3.34-0.331,3.34c0.135,0,0.265-0.008,0.384-0.021
						c0.544-0.059,2.422-0.672,5.145-1.395C61.474,43.884,61.239,43.775,60.946,43.646z"/>
					<path fill="#FFFFFF" d="M58.744,42.895c-1.643,0.674-3.035,1.197-4.188,1.582c-0.012,0.816,1.194,0.982,1.963,0.895
						c0.535-0.059,2.365-0.652,5.017-1.361L58.744,42.895z"/>
				</g>
			</g>
			<path fill="#FFFFFF" d="M111.013,40.725c-0.267-0.201-0.861-0.244-1.029-0.514c-0.13-0.221-0.05-0.592-0.058-0.834
				c-0.008-0.383-0.152-0.727-0.397-1.008c-0.737-0.829-1.772-1.422-2.734-1.955c-4.434-2.453-9.839-4.635-14.854-5.461
				c-2.861-2.65-5.894-5.247-9.959-5.484c-0.601-0.033-1.171-0.063-1.661-0.063c-0.905,0-1.536,0.102-1.581,0.474
				c-0.021,0.174,0.334,0.288,0.691,0.498c1.154,0.676,1.822,1.371,2.084,1.948c0.172,0.371,0.47,1.501-3.7,2.358
				c-1.763,0.362-4.3,1.409-7.039,2.753c0.167,0.108,0.331,0.217,0.495,0.324c2.619-1.27,5.01-2.245,6.646-2.582
				c2.308-0.475,3.631-1.104,4.045-1.925c0.128-0.255,0.235-0.659,0.013-1.138c-0.339-0.745-1.13-1.497-2.289-2.176
				c-0.003-0.001-0.005-0.003-0.008-0.004c0.159-0.016,0.368-0.025,0.641-0.025c0.464,0,1.014,0.027,1.632,0.062
				c3.813,0.223,6.738,2.658,9.645,5.351c0.073,0.067,0.164,0.111,0.262,0.128c4.521,0.745,9.739,2.664,14.691,5.404
				c0.995,0.552,1.943,1.108,2.598,1.845c0.176,0.202,0.268,0.433,0.273,0.692c0.001,0.055-0.003,0.118-0.007,0.185
				c-0.016,0.252-0.038,0.599,0.141,0.9c0.194,0.311,0.555,0.431,0.845,0.527c0.104,0.035,0.263,0.088,0.317,0.128
				c0.262,0.19,0.228,0.35,0.224,0.389c-0.044,0.061-0.219,0.151-0.8,0.247l-0.075,0.013c-0.568,0.094-1.213,0.138-2.027,0.138
				c-0.317,0-0.633-0.006-0.947-0.014c-2.212-0.051-4.455-0.29-6.624-0.521c-2.058-0.221-4.186-0.447-6.304-0.518l-1.265-0.041
				c-2.204-0.074-4.285-0.144-6.465-0.144c-0.485,0-0.976,0.003-1.475,0.011c-0.036,0.001-0.07,0.006-0.104,0.014
				c-0.561,0.009-3.354,0.057-5.75,0.129c0.153,0.177,0.283,0.334,0.417,0.493c2.583-0.073,5.442-0.118,5.442-0.118l0.004-0.012
				c0.496-0.008,0.984-0.011,1.467-0.011c2.581,0,5.014,0.098,7.713,0.185c4.334,0.143,8.602,0.939,12.932,1.039
				c0.318,0.008,0.638,0.014,0.958,0.014c0.708,0,1.417-0.03,2.11-0.145c0.367-0.063,1.179-0.166,1.278-0.632
				C111.509,41.262,111.317,40.945,111.013,40.725z"/>
			<path fill="#FFFFFF" d="M111.013,40.725c-0.267-0.201-0.861-0.244-1.029-0.514c-0.13-0.221-0.05-0.592-0.058-0.834
				c-0.008-0.383-0.152-0.727-0.397-1.008c-0.737-0.829-1.772-1.422-2.734-1.955c-4.434-2.453-9.839-4.635-14.854-5.461
				c-2.861-2.65-5.894-5.247-9.959-5.484c-0.601-0.033-1.171-0.063-1.661-0.063c-0.905,0-1.536,0.102-1.581,0.474
				c-0.021,0.174,0.334,0.288,0.691,0.498c1.154,0.676,1.822,1.371,2.084,1.948c0.172,0.371,0.47,1.501-3.7,2.358
				c-1.763,0.362-4.3,1.409-7.039,2.753c0.167,0.108,0.331,0.217,0.495,0.324c2.619-1.27,5.01-2.245,6.646-2.582
				c2.308-0.475,3.631-1.104,4.045-1.925c0.128-0.255,0.235-0.659,0.013-1.138c-0.339-0.745-1.13-1.497-2.289-2.176
				c-0.003-0.001-0.005-0.003-0.008-0.004c0.159-0.016,0.368-0.025,0.641-0.025c0.464,0,1.014,0.027,1.632,0.062
				c3.813,0.223,6.738,2.658,9.645,5.351c0.073,0.067,0.164,0.111,0.262,0.128c4.521,0.745,9.739,2.664,14.691,5.404
				c0.995,0.552,1.943,1.108,2.598,1.845c0.176,0.202,0.268,0.433,0.273,0.692c0.001,0.055-0.003,0.118-0.007,0.185
				c-0.016,0.252-0.038,0.599,0.141,0.9c0.194,0.311,0.555,0.431,0.845,0.527c0.104,0.035,0.263,0.088,0.317,0.128
				c0.262,0.19,0.228,0.35,0.224,0.389c-0.044,0.061-0.219,0.151-0.8,0.247l-0.075,0.013c-0.568,0.094-1.213,0.138-2.027,0.138
				c-0.317,0-0.633-0.006-0.947-0.014c-2.212-0.051-4.455-0.29-6.624-0.521c-2.058-0.221-4.186-0.447-6.304-0.518l-1.265-0.041
				c-2.204-0.074-4.285-0.144-6.465-0.144c-0.485,0-0.976,0.003-1.475,0.011c-0.036,0.001-0.07,0.006-0.104,0.014
				c-0.561,0.009-3.354,0.057-5.75,0.129c0.153,0.177,0.283,0.334,0.417,0.493c2.583-0.073,5.442-0.118,5.442-0.118l0.004-0.012
				c0.496-0.008,0.984-0.011,1.467-0.011c2.581,0,5.014,0.098,7.713,0.185c4.334,0.143,8.602,0.939,12.932,1.039
				c0.318,0.008,0.638,0.014,0.958,0.014c0.708,0,1.417-0.03,2.11-0.145c0.367-0.063,1.179-0.166,1.278-0.632
				C111.509,41.262,111.317,40.945,111.013,40.725z"/>
			<g>
				<g>
					<path fill="#FFFFFF" d="M1.729,44.925c-0.845,0.712-2.084-0.193-1.647-1.205c0.725-1.679,2.625-5.101,7.055-8.412
						c4.372-3.26,4.48,4.212,4.172,8.882c-0.11,1.645-2.382,2.035-3.011,0.51c-0.012-0.031-0.023-0.063-0.036-0.09
						c-1.264-3.146-3.939-2.012-5.247-0.89C2.512,44.146,2.109,44.602,1.729,44.925z"/>
					<g>
						<path fill="#FFFFFF" d="M10.955,19.613c1.228-2.031,2.694-3.936,4.344-5.705C13.63,15.662,12.171,17.568,10.955,19.613z"/>
						<path fill="#FFFFFF" d="M53.928,4.322c-1.383-1.778-3.635,0.305-5.336-0.446c-0.96-0.423-1.515-1.415-2.236-2.122
							c-0.741-0.723-1.616-1.316-2.629-1.568c-2.049-0.518-4.336,0.15-6.291,0.774c-1.063,0.339-2.133,0.671-3.185,1.055
							c-5.668,2.059-11.334,5.133-16.017,9.132c3.772-1.951,7.866-3.342,12.231-4.027c1.458-0.232,3.346-0.348,4.793-0.521
							c-1.575,0.189-13.499,5.177-20.742,11.416c-1.793,1.549-3.513,3.166-5.208,4.813C7.721,26.52,6.93,30.6,7.301,35.078
							c0.099,1.205,1.618,1.664,2.359,0.711c0.31-0.4,0.68-0.859,1.063-1.329c-0.04,0.05-0.092,0.108-0.131,0.156
							c0.898-1.106,1.414-2.948,2.127-4.204C18.911,19.539,29.554,12.6,41.866,10.529c3.024-0.51,6.481-0.604,9.358-1.762
							c1.357-0.547,2.174-1.154,2.671-1.761c0.271-0.446,0.45-0.976,0.427-1.515C54.3,5.053,54.175,4.639,53.928,4.322z
							 M41.431,5.603c-0.879,0.142-2.007-0.66-2.007-0.66l0.636-1.13l0.002,0.02c0.031-0.031,1.547,0.783,1.547,0.783
							s0.994-1.735,1.452-0.752C43.061,3.863,43.586,5.251,41.431,5.603z"/>
						<path fill="#FFFFFF" d="M9.225,22.904c0.027-0.027,0.056-0.051,0.084-0.078C9.401,22.612,9.5,22.4,9.598,22.189
							C9.482,22.433,9.333,22.66,9.225,22.904z"/>
						<path fill="#FFFFFF" d="M17.247,12c0.321-0.293,0.657-0.569,0.988-0.854c-0.073,0.039-0.15,0.068-0.223,0.105
							C17.746,11.492,17.507,11.754,17.247,12z"/>
						<path fill="#FFFFFF" d="M53.656,7.412c0.148-0.15,0.267-0.34,0.363-0.545c-0.034,0.047-0.086,0.092-0.124,0.14
							C53.814,7.142,53.761,7.303,53.656,7.412z"/>
					</g>
					<path fill="#FFFFFF" d="M35.512,10.139c-1.363,1.315-2.987,2.066-4.728,2.758c-1.693,0.676-3.497,1.43-5.233,1.972
						c-0.298,0.091-0.35,0.481-0.085,0.644c3.583,2.189,11.792,0.38,11.253-4.879C36.66,10.027,35.986,9.68,35.512,10.139
						L35.512,10.139z"/>
					<path fill="#FFFFFF" d="M21.947,8.799c1.728-1.1,4.41-2.766,5.953-3.496c1.025-0.486,1.9-0.826,2.58-1.065
						c0.001-0.002,0.003-0.004,0.004-0.006c0,0-2.734-1.392-6.158-0.929c-2.784,0.371-5.565,1.715-7.625,3.619
						c-0.281,0.257-3.017,3.256-1.203,3.105C17.017,9.907,20.064,8.167,21.947,8.799z"/>
					<path fill="#FFFFFF" d="M42.148,0.506c0.52,0,1.009,0.058,1.457,0.171c0.822,0.204,1.628,0.688,2.397,1.438
						c0.209,0.205,0.407,0.44,0.616,0.689c0.494,0.589,1.005,1.196,1.77,1.534c0.325,0.144,0.679,0.213,1.082,0.213
						c0.539,0,1.077-0.126,1.597-0.248c0.475-0.111,0.923-0.216,1.325-0.216c0.5,0,0.84,0.163,1.138,0.546
						c0.169,0.217,0.269,0.522,0.287,0.881c0.026,0.584-0.18,1.19-0.524,1.546c-0.896,0.928-2.139,1.517-3.34,2.087l-0.244,0.116
						c-1.444,0.69-2.976,1.308-4.457,1.905c-0.911,0.367-1.852,0.747-2.753,1.137c-5.271,2.275-10.006,4.361-14.574,6.852
						C18.846,24.1,12.333,31.505,9.26,35.479c-0.159,0.204-0.382,0.316-0.63,0.316c-0.379,0-0.784-0.261-0.825-0.759
						C6.452,18.659,20.668,7.485,34.425,2.489c0.894-0.326,1.82-0.62,2.716-0.904l0.449-0.144
						C39.072,0.968,40.646,0.506,42.148,0.506 M42.148,0.001c-1.597,0-3.248,0.491-4.712,0.959
						c-1.063,0.339-2.133,0.671-3.185,1.055C20.14,7.14,5.928,18.463,7.301,35.078c0.062,0.76,0.688,1.223,1.329,1.223
						c0.375,0,0.756-0.159,1.03-0.512c2.985-3.859,9.469-11.268,18.505-16.188c4.704-2.564,9.617-4.71,14.533-6.832
						c2.353-1.016,4.874-1.924,7.229-3.05c1.31-0.624,2.707-1.249,3.73-2.308c0.453-0.467,0.697-1.217,0.666-1.92
						c-0.022-0.439-0.146-0.854-0.394-1.17c-0.439-0.565-0.967-0.74-1.537-0.74c-0.928,0-1.967,0.464-2.922,0.464
						c-0.303,0-0.598-0.047-0.877-0.17c-0.96-0.423-1.515-1.415-2.236-2.122c-0.741-0.723-1.616-1.316-2.629-1.568
						C43.212,0.056,42.683,0.001,42.148,0.001L42.148,0.001z"/>
					<path fill="#FFFFFF" d="M37.04,15.062c-0.373,0.514-0.761,1.023-1.176,1.521c-1.191,1.435-2.365,3.017-3.645,4.37
						c-0.225,0.24-0.063,0.626,0.265,0.638c2.738,0.097,4.797-1.259,6.583-3.235c1.156-1.283,2.027-3.191,1.937-4.963L37.04,15.062z
						"/>
				</g>
				<g>
					<g>
						<path fill="#FFFFFF" d="M68.279,33.625c0.265,3.09,2.339,5.582,5.087,6.535c0.166,0.039,0.336,0.078,0.51,0.106
							c1.005,0.186,1.924,0.189,2.76,0.075l-0.008-0.04c0.676-0.06,1.322-0.257,1.94-0.547c-0.039-0.042-0.074-0.087-0.112-0.128
							c-2.902-3.168-6.31-5.874-10.086-7.902C68.265,32.336,68.223,32.977,68.279,33.625z"/>
						<path fill="#FFFFFF" d="M80.279,41.779c0.219,0.275,0.441,0.548,0.649,0.826c-0.509-0.689-1.054-1.352-1.613-1.999
							c0.155,0.174,0.311,0.348,0.458,0.529C79.949,41.346,80.109,41.563,80.279,41.779z"/>
						<path fill="#FFFFFF" d="M63.004,39.081c-0.034-0.21-0.069-0.419-0.085-0.628c-0.273-3.176,1.451-6.058,4.124-7.423
							c-0.238-0.114-0.46-0.257-0.7-0.365c-4.127-1.856-8.688-2.813-13.199-2.584C53.517,36.449,63.004,39.081,63.004,39.081z"/>
						<path fill="#FFFFFF" d="M44.417,30.086c-4.252,1.727-8.163,4.398-11.56,7.514c-0.012,0.008-0.016,0.016-0.026,0.023
							c-1.596,1.442,3.23,1.004,4.929,1.126c1.843,0.134,3.68,0.348,5.508,0.612c-0.044-0.008-0.089-0.018-0.134-0.023
							C42.899,37.074,42.917,33.583,44.417,30.086z"/>
						<path fill="#FFFFFF" d="M48.592,28.742c0.231-0.055,0.464-0.105,0.697-0.156C49.057,28.637,48.825,28.688,48.592,28.742z"/>
						<path fill="#FFFFFF" d="M45.933,29.518c0.254-0.088,0.508-0.176,0.764-0.256C46.441,29.342,46.187,29.43,45.933,29.518z"/>
						<path fill="#FFFFFF" d="M82.985,45.811c-0.426-0.783-0.906-1.531-1.408-2.267c0.146,0.214,0.298,0.421,0.438,0.638
							C82.359,44.711,82.683,45.253,82.985,45.811z"/>
						<path fill="#FFFFFF" d="M58.397,43.057c-0.505-0.179-1.023-0.344-1.537-0.514c-0.409-0.131-0.82-0.273-1.231-0.404
							c-0.01-0.004-0.019-0.006-0.028-0.008c1.874,0.582,3.728,1.229,5.554,1.948C60.241,43.724,59.322,43.38,58.397,43.057z"/>
						<path fill="#FFFFFF" d="M53.542,41.531c-0.231-0.067-0.462-0.135-0.694-0.198c-0.814-0.222-1.629-0.427-2.452-0.616
							c-0.116-0.031-0.227-0.059-0.346-0.091c-0.043-0.01-0.088-0.018-0.132-0.028c1.76,0.408,3.505,0.876,5.233,1.403
							C54.616,41.839,54.079,41.684,53.542,41.531z"/>
						<path fill="#FFFFFF" d="M47.364,40.053c-0.044-0.012-0.083-0.016-0.125-0.027c-0.737-0.143-1.481-0.249-2.222-0.371
							c1.36,0.225,2.718,0.47,4.066,0.766C48.51,40.294,47.938,40.168,47.364,40.053z"/>
						<path fill="#FFFFFF" d="M49.29,28.586c0.75-0.155,1.505-0.293,2.27-0.383C50.794,28.295,50.04,28.431,49.29,28.586z"/>
						<path fill="#FFFFFF" d="M46.697,29.262c0.625-0.197,1.258-0.369,1.896-0.52C47.955,28.895,47.322,29.064,46.697,29.262z"/>
						<path fill="#FFFFFF" d="M55.151,42.001c0.149,0.044,0.3,0.083,0.45,0.13C55.452,42.084,55.3,42.045,55.151,42.001z"/>
						<path fill="#FFFFFF" d="M43.268,39.361c0.585,0.083,1.166,0.195,1.75,0.293C44.434,39.555,43.854,39.444,43.268,39.361z"/>
						<path fill="#FFFFFF" d="M44.811,29.918c-0.132,0.052-0.263,0.115-0.393,0.166l-0.001,0.002
							c0.501-0.203,1.006-0.393,1.516-0.568C45.558,29.647,45.182,29.773,44.811,29.918z"/>
						<path fill="#FFFFFF" d="M81.555,43.51c-0.202-0.296-0.401-0.596-0.614-0.889c-0.004-0.006-0.009-0.012-0.013-0.016
							c0.226,0.307,0.436,0.625,0.65,0.938C81.57,43.532,81.563,43.521,81.555,43.51z"/>
						<path fill="#FFFFFF" d="M53.144,28.081c-0.531,0.027-1.059,0.063-1.584,0.122C52.086,28.145,52.616,28.108,53.144,28.081
							L53.144,28.081z"/>
						<path fill="#FFFFFF" d="M49.083,40.42c0.277,0.061,0.558,0.115,0.834,0.178C49.642,40.533,49.362,40.48,49.083,40.42z"/>
						<path fill="#FFFFFF" d="M68.374,31.676h-0.002c-0.429-0.236-0.868-0.445-1.306-0.659c-0.008,0.004-0.015,0.01-0.022,0.014
							c0.449,0.216,0.886,0.456,1.326,0.694C68.371,31.708,68.371,31.692,68.374,31.676z"/>
						<path fill="#FFFFFF" d="M79.052,40.302c-0.16-0.182-0.318-0.367-0.479-0.549c-0.002,0-0.004,0.002-0.006,0.002
							c0.255,0.278,0.501,0.565,0.747,0.852C79.226,40.506,79.14,40.404,79.052,40.302z"/>
					</g>
					<path fill="#FFFFFF" d="M54.466,28.544L54.466,28.544c3.88,0,7.916,0.893,11.669,2.582c4.348,1.961,8.368,4.936,11.948,8.844
						c1.884,2.045,3.342,4.035,4.457,6.081l0.077,0.143c0.535,0.99,1.04,1.925,1.076,2.964c0.041,1.221-0.293,2.43-0.94,3.405
						c-0.093,0.142-0.189,0.274-0.294,0.401c-0.146,0.18-0.153,0.436-0.016,0.621c0.696,0.944,1.001,2.005,0.838,2.91
						c-0.189,1.043-1.009,1.744-2.04,1.744c-0.373,0-0.752-0.1-1.097-0.289c-1.419-0.775-2.368-2.076-3.373-3.453
						c-0.266-0.364-0.53-0.728-0.804-1.079c-3.093-3.974-7.741-7.09-14.627-9.81c-7.548-2.973-15.469-4.777-23.544-5.363
						c-0.33-0.024-0.764-0.027-1.183-0.027h-0.396l-0.424,0.001c-1.393,0-2.288-0.061-2.67-0.18
						c0.005-0.005,0.009-0.009,0.014-0.014c0.014-0.01,0.031-0.025,0.047-0.04c0.005-0.004,0.01-0.009,0.015-0.013
						c4.061-3.724,10.553-8.354,18.418-9.267C52.55,28.599,53.509,28.544,54.466,28.544 M54.466,28.038
						c-0.97,0-1.941,0.055-2.906,0.165c-7.047,0.818-13.475,4.604-18.703,9.396c-0.012,0.008-0.016,0.016-0.026,0.023
						c-1.146,1.036,1.021,1.102,2.962,1.102c0.282,0,0.559-0.001,0.82-0.001c0.445,0,0.846,0.004,1.147,0.025
						c8.007,0.581,15.923,2.387,23.395,5.33c5.443,2.149,10.82,5.034,14.414,9.649c1.3,1.675,2.417,3.619,4.333,4.666
						c0.435,0.239,0.895,0.351,1.339,0.351c1.198,0,2.292-0.813,2.537-2.16c0.209-1.157-0.231-2.354-0.929-3.3
						c0.116-0.142,0.223-0.288,0.326-0.445c0.725-1.092,1.066-2.395,1.023-3.699c-0.042-1.213-0.64-2.268-1.213-3.33
						c-1.225-2.249-2.797-4.303-4.53-6.184c-3.418-3.73-7.503-6.884-12.112-8.962C62.619,28.989,58.542,28.038,54.466,28.038
						L54.466,28.038z"/>
					<path fill="#FFFFFF" d="M30.466,46.126c0.911,0.458,2.112-0.396,2.76-1.28c1.231-1.695,3.061-4.596,2.31-6.832
						c-1.169-3.469-9.238-3.172-12.727-1.557c-2.349,1.091,1.681,1.553,3.578,2.027c1.877,0.467,2.657,1.943,2.926,3.738
						c0.162,1.066-0.021,2.445,0.607,3.39C30.081,45.857,30.267,46.027,30.466,46.126z"/>
					<circle fill="#FFFFFF" cx="77.518" cy="48.517" r="1.435"/>
					<path fill="#FFFFFF" d="M81.96,58.557c-0.162-0.166-0.367-0.32-0.512-0.561c-0.079-0.115-0.17-0.226-0.247-0.348
						c-0.063-0.135-0.131-0.273-0.198-0.412c-0.081-0.138-0.119-0.296-0.172-0.453c-0.043-0.162-0.113-0.316-0.14-0.486
						c-0.038-0.174-0.075-0.344-0.111-0.521c-0.024-0.182-0.053-0.368-0.083-0.55c-0.055-0.38-0.106-0.759-0.16-1.142
						c-0.056-0.387-0.137-0.779-0.212-1.162c-0.106-0.383-0.197-0.762-0.359-1.109c-0.125-0.364-0.33-0.676-0.516-0.973
						c-0.184-0.301-0.435-0.525-0.628-0.759c-0.228-0.205-0.458-0.367-0.65-0.518c-0.186-0.153-0.387-0.214-0.535-0.304
						c-0.306-0.15-0.482-0.237-0.482-0.237s0.148,0.13,0.405,0.352c0.125,0.114,0.31,0.229,0.46,0.407
						c0.152,0.17,0.32,0.355,0.508,0.568c0.146,0.241,0.337,0.475,0.48,0.759c0.14,0.288,0.288,0.581,0.385,0.917
						c0.132,0.32,0.178,0.684,0.276,1.039c0.063,0.367,0.132,0.734,0.178,1.122c0.062,0.384,0.123,0.771,0.186,1.146
						c0.059,0.388,0.158,0.763,0.269,1.127c0.043,0.182,0.121,0.359,0.193,0.529c0.077,0.17,0.139,0.34,0.245,0.486
						c0.095,0.149,0.186,0.291,0.274,0.434c0.107,0.127,0.228,0.237,0.332,0.352c0.162,0.198,0.368,0.324,0.549,0.447
						c0.115-0.023,0.225-0.052,0.334-0.084C82.005,58.596,81.984,58.58,81.96,58.557z"/>
					<path fill="#FFFFFF" d="M69.444,47.991c-0.21,0.313-0.456,0.665-0.487,0.699c-0.794,0.837-1.839,0.979-2.906,1.237
						c-0.543,0.13-1.93,0.406-1.768,1.236c0.229,1.178,3.485,1.395,4.313,1.422c1.313,0.04,2.795-0.066,4.066-0.402
						c0.542-0.141,1.03-0.277,1.471-0.411C73.173,50.769,71.443,49.137,69.444,47.991z"/>
					<path fill="#FFFFFF" d="M62.009,29.481c1.892,0.664,5.258,1.883,6.814,2.671c0.059-0.172,0.083-0.357,0.042-0.551
						c-0.502-2.43-2.398-5.176-4.609-6.381c-0.867-0.475-5.314-2.217-5.19-0.668C59.184,25.982,62.015,26.688,62.009,29.481z"/>
					<path fill="#FFFFFF" d="M64.038,45.156c-0.856,0.051-1.723,0.072-2.691,0.029c-0.278-0.012-0.498,0.395-0.333,0.676
						c1.421,2.396,6.44,3.277,9.513,2.955C68.449,47.491,65.866,46.102,64.038,45.156z"/>
				</g>
			</g>
			<path fill="#FFFFFF" d="M99.431,41.505"/>
			<path fill="#FFFFFF" d="M93.847,41.172c-1.487-0.106-2.759-0.166-3.753-0.201c-0.737,0.604-1.47,1.164-2.377,1.733
				c-0.193,0.122-0.15,0.494,0.089,0.608c1.919,0.882,5.641-0.514,7.907-1.999C95.17,41.27,94.565,41.223,93.847,41.172z"/>
			<path fill="#FFFFFF" d="M92.013,41.061c-0.099,0.766-0.305,1.939-0.72,2.951c-0.974,2.367,2.162,1.119,3.122,0.668
				c0.966-0.45,1.814-1.039,2.436-1.9c0.332-0.458,0.588-0.956,0.915-1.412C96.423,41.281,93.79,41.122,92.013,41.061z"/>
		</g>
	</g>
</g>
<g id="圖層_3" display="none">
</g>
<g id="圖層_2" display="none">
</g>
</svg>
